<?xml version="1.0" encoding="UTF-8" standalone="no"?>
<!DOCTYPE svg PUBLIC "-//W3C//DTD SVG 1.1//EN"
"http://www.w3.org/Graphics/SVG/1.1/DTD/svg11.dtd">
<svg viewBox="0 0 1375 846" version="1.1" xmlns="http://www.w3.org/2000/svg" xmlns:xlink="http://www.w3.org/1999/xlink">
<defs>
<clipPath id="c0_6"><path d="M0,845.6V0H1375V845.6Z"/></clipPath>
<clipPath id="c1_6"><path d="M206.4,760.8c-1,0,-2.1,-.2,-3.1,-.6c-1,-.4,-1.9,-1,-2.7,-1.8c-.7,-.7,-1.3,-1.6,-1.7,-2.6c-.5,-1,-.7,-2.1,-.7,-3.2V510.1c0,-1.1,.2,-2.1,.7,-3.2c.4,-1,1,-1.8,1.7,-2.6c.8,-.8,1.7,-1.4,2.7,-1.8c1,-.4,2.1,-.6,3.1,-.6H384.8c1.1,0,2.1,.2,3.1,.6c1.1,.4,1.9,1,2.7,1.8c.8,.8,1.4,1.6,1.8,2.6c.4,1.1,.6,2.1,.6,3.2V752.6c0,1.1,-.2,2.2,-.6,3.2c-.4,1,-1,1.9,-1.8,2.6c-.8,.8,-1.6,1.4,-2.7,1.8c-1,.4,-2,.6,-3.1,.6Z"/></clipPath>
<clipPath id="c2_6"><path d="M549.5,672.4c-.4,-.1,-.9,-.2,-1.3,-.4c-1,-.4,-1.9,-1,-2.7,-1.8c-.7,-.8,-1.3,-1.7,-1.7,-2.7c-.4,-.8,-.6,-1.7,-.7,-2.6V550.8c.1,-.9,.3,-1.8,.7,-2.6c.4,-1,1,-1.9,1.7,-2.7c.8,-.7,1.7,-1.3,2.7,-1.7c1,-.5,2.1,-.7,3.1,-.7H729.7c1.1,0,2.1,.2,3.1,.7c1.1,.4,1.9,1,2.7,1.7c.8,.8,1.4,1.7,1.8,2.7c.4,1,.6,2.1,.6,3.1V664.4c0,1.1,-.2,2.1,-.6,3.1c-.4,1,-1,1.9,-1.8,2.7c-.8,.8,-1.6,1.4,-2.7,1.8c-.4,.2,-.8,.3,-1.3,.4Z"/></clipPath>
<clipPath id="c3_6"><path d="M897.4,760.8c-1.1,0,-2.2,-.2,-3.2,-.6c-1,-.4,-1.9,-1,-2.6,-1.8c-.8,-.7,-1.4,-1.6,-1.8,-2.6c-.4,-1,-.6,-2.1,-.6,-3.2V551.3c0,-1,.2,-2.1,.6,-3.1c.4,-1,1,-1.9,1.8,-2.7c.7,-.7,1.6,-1.3,2.6,-1.7c1,-.5,2.1,-.7,3.2,-.7h273.4c1.1,0,2.2,.2,3.2,.7c1,.4,1.9,1,2.7,1.7c.7,.8,1.3,1.7,1.7,2.7c.5,1,.7,2.1,.7,3.1V752.6c0,1.1,-.2,2.2,-.7,3.2c-.4,1,-1,1.9,-1.7,2.6c-.8,.8,-1.7,1.4,-2.7,1.8c-1,.4,-2.1,.6,-3.2,.6Z"/></clipPath>
<style type="text/css"><![CDATA[
.g0_6{
fill: #FFF;
}
.g1_6{
fill: #F7F3F2;
}
.g2_6{
fill: #150D48;
}
.g3_6{
fill: #0C0A33;
}
]]></style>
</defs>
<g clip-path="url(#c0_6)">
<path d="M0,0H1375V845.6H0V0Z" class="g0_6"/>
<path d="M0,0H1375V845.6H0V0Z" class="g1_6"/>
<path d="M0,0H1375V845.6H0V0Z" class="g2_6"/>
<path d="M0,0H1375V845.6H0V0Z" class="g2_6"/>
<path d="M0,0H1375V845.6H0V0Z" class="g3_6"/>
</g>
<image clip-path="url(#c1_6)" preserveAspectRatio="none" x="198" y="502" width="195" height="259" xlink:href="img/1.jpg"/>
<image clip-path="url(#c2_6)" preserveAspectRatio="none" x="543" y="543" width="195" height="130" xlink:href="img/2.jpg"/>
<image clip-path="url(#c3_6)" preserveAspectRatio="none" x="889" y="543" width="290" height="218" xlink:href="img/3.jpg"/>
</svg>