<?xml version="1.0" encoding="UTF-8" standalone="no"?>
<!DOCTYPE svg PUBLIC "-//W3C//DTD SVG 1.1//EN"
"http://www.w3.org/Graphics/SVG/1.1/DTD/svg11.dtd">
<svg viewBox="0 0 1375 772" version="1.1" xmlns="http://www.w3.org/2000/svg" xmlns:xlink="http://www.w3.org/1999/xlink">
<defs>
<clipPath id="c0_1"><path d="M121.2,566c-1.5,0,-2.8,-.5,-3.9,-1.6c-1,-1,-1.6,-2.3,-1.6,-3.8V211.7c0,-1.5,.6,-2.8,1.6,-3.8c1.1,-1.1,2.4,-1.6,3.9,-1.6H1253.8c1.5,0,2.8,.5,3.9,1.6c1,1,1.6,2.3,1.6,3.8V560.6c0,1.5,-.6,2.8,-1.6,3.8c-1.1,1.1,-2.4,1.6,-3.9,1.6Z"/></clipPath>
<clipPath id="c1_1"><path d="M0,772.3V0H1375V772.3Z"/></clipPath>
<clipPath id="c2_1"><path d="M277,464v-3.4h-8.5V464Zm349.1,0v-3.4h-7.4V464Zm92.8,0v-3.4h-7.4V464Zm249.8,0v-3.4h-7.4V464Zm52.6,0v-3.4h-6.6V464Zm64.7,0v-3.4h-14.9V464Zm34.3,0v-3.4h-8.5V464ZM0,772.3V0H1375V772.3Z"/></clipPath>
<clipPath id="c3_1"><path d="M315.5,499v-3.3h-7.4V499Zm59.6,0v-3.3h-7.4V499ZM0,772.3V0H1375V772.3Z"/></clipPath>
<style type="text/css"><![CDATA[
.g0_1{
fill: #FFF;
}
.g1_1{
fill: #F7F3F2;
}
.g2_1{
fill: #150D48;
}
.g3_1{
fill: #000;
}
.g4_1{
fill: #FFA44F;
}
]]></style>
</defs>
<g clip-path="url(#c1_1)">
<path d="M0,0H1375V772.3H0V0Z" class="g0_1"/>
<path d="M0,0H1375V772.3H0V0Z" class="g1_1"/>
<path d="M0,0H1375V772.3H0V0Z" class="g2_1"/>
<path d="M0,0H1375V772.3H0V0Z" class="g2_1"/>
</g>
<path d="M115.7,560.6V211.7c0,-.7,.2,-1.4,.4,-2.1c.3,-.6,.7,-1.2,1.2,-1.7c.5,-.6,1.1,-1,1.8,-1.2c.7,-.3,1.4,-.4,2.1,-.4H1253.8c.7,0,1.4,.1,2.1,.4c.7,.2,1.3,.6,1.8,1.2c.5,.5,.9,1.1,1.2,1.7c.2,.7,.4,1.4,.4,2.1V560.6c0,.7,-.2,1.4,-.4,2.1c-.3,.6,-.7,1.2,-1.2,1.7c-.5,.6,-1.1,.9,-1.8,1.2c-.7,.3,-1.4,.4,-2.1,.4H121.2c-.7,0,-1.4,-.1,-2.1,-.4c-.7,-.3,-1.3,-.6,-1.8,-1.2c-.5,-.5,-.9,-1.1,-1.2,-1.7c-.2,-.7,-.4,-1.4,-.4,-2.1Z" class="g3_1"/>
<g clip-path="url(#c0_1)">
<g clip-path="url(#c0_1)">
<image preserveAspectRatio="none" x="116" y="206" width="1143" height="360" xlink:href="img/1.jpg"/>
<image preserveAspectRatio="none" x="116" y="206" width="1143" height="360" xlink:href="img/2.jpg"/>
</g>
</g>
<path clip-path="url(#c2_1)" d="M197.7,461.8H1159v1.1H197.7v-1.1Z" class="g4_1"/>
<path d="M1159,461.8h5.7v1.1H1159v-1.1Z" class="g4_1"/>
<path clip-path="url(#c3_1)" d="M197.7,496.1H513.9v1.2H197.7v-1.2Z" class="g4_1"/>
</svg>