<?xml version="1.0" encoding="UTF-8" standalone="no"?>
<!DOCTYPE svg PUBLIC "-//W3C//DTD SVG 1.1//EN"
"http://www.w3.org/Graphics/SVG/1.1/DTD/svg11.dtd">
<svg viewBox="0 0 1375 1546" version="1.1" xmlns="http://www.w3.org/2000/svg" xmlns:xlink="http://www.w3.org/1999/xlink">
<defs>
<clipPath id="c0_2"><path d="M206.4,627.9c-1,0,-2.1,-.2,-3.1,-.6c-1,-.4,-1.9,-1,-2.7,-1.8c-.7,-.8,-1.3,-1.6,-1.7,-2.7c-.5,-1,-.7,-2,-.7,-3.1V343.9c0,-1,.2,-2.1,.7,-3.1c.4,-1,1,-1.9,1.7,-2.7c.8,-.7,1.7,-1.3,2.7,-1.7c1,-.5,2.1,-.7,3.1,-.7H663.2c1.1,0,2.2,.2,3.2,.7c1,.4,1.9,1,2.7,1.7c.7,.8,1.3,1.7,1.7,2.7c.4,1,.7,2,.7,3.1V619.7c0,1.1,-.3,2.1,-.7,3.1c-.4,1.1,-1,1.9,-1.7,2.7c-.8,.8,-1.7,1.4,-2.7,1.8c-1,.4,-2.1,.6,-3.2,.6Z"/></clipPath>
<clipPath id="c1_2"><path d="M711.8,627.9c-1.1,0,-2.2,-.2,-3.2,-.6c-1,-.4,-1.9,-1,-2.7,-1.8c-.7,-.8,-1.3,-1.6,-1.7,-2.7c-.4,-1,-.7,-2,-.7,-3.1V343.9c0,-1,.3,-2.1,.7,-3.1c.4,-1,1,-1.9,1.7,-2.7c.8,-.7,1.7,-1.3,2.7,-1.7c1,-.5,2.1,-.7,3.2,-.7h457.9c1.1,0,2.1,.2,3.1,.7c1.1,.4,1.9,1,2.7,1.7c.8,.8,1.4,1.7,1.8,2.7c.4,1,.6,2.1,.6,3.1V619.7c0,1.1,-.2,2.1,-.6,3.1c-.4,1.1,-1,1.9,-1.8,2.7c-.8,.8,-1.6,1.4,-2.7,1.8c-1,.4,-2,.6,-3.1,.6Z"/></clipPath>
<clipPath id="c2_2"><path d="M0,1545.7V0H1375V1545.7Z"/></clipPath>
<clipPath id="c3_2"><path d="M206.4,627.9c-1,0,-2.1,-.2,-3.1,-.6c-1,-.4,-1.9,-1,-2.7,-1.8c-.7,-.8,-1.3,-1.6,-1.7,-2.7c-.5,-1,-.7,-2,-.7,-3.1V343.9c0,-1,.2,-2.1,.7,-3.1c.4,-1,1,-1.9,1.7,-2.7c.8,-.7,1.7,-1.3,2.7,-1.7c1,-.5,2.1,-.7,3.1,-.7H663.2c1.1,0,2.2,.2,3.2,.7c1,.4,1.9,1,2.7,1.7c.7,.8,1.3,1.7,1.7,2.7c.4,1,.7,2.1,.7,3.1V619.7c0,1.1,-.3,2.1,-.7,3.1c-.4,1.1,-1,1.9,-1.7,2.7c-.8,.8,-1.7,1.4,-2.7,1.8c-1,.4,-2.1,.6,-3.2,.6Z"/></clipPath>
<clipPath id="c4_2"><path d="M206.4,1486.1c-1,0,-2.1,-.2,-3.1,-.6c-1,-.4,-1.9,-1,-2.7,-1.8c-.7,-.7,-1.3,-1.6,-1.7,-2.6c-.5,-1,-.7,-2.1,-.7,-3.2V841.2c0,-1.1,.2,-2.1,.7,-3.1c.4,-1,1,-1.9,1.7,-2.7c.8,-.7,1.7,-1.3,2.7,-1.8c1,-.4,2.1,-.6,3.1,-.6h963.3c1.1,0,2.1,.2,3.1,.6c1.1,.5,1.9,1.1,2.7,1.8c.8,.8,1.4,1.7,1.8,2.7c.4,1,.6,2,.6,3.1v636.7c0,1.1,-.2,2.2,-.6,3.2c-.4,1,-1,1.9,-1.8,2.6c-.8,.8,-1.6,1.4,-2.7,1.8c-1,.4,-2,.6,-3.1,.6Z"/></clipPath>
<style type="text/css"><![CDATA[
.g0_2{
fill: #FFF;
}
.g1_2{
fill: #F7F3F2;
}
.g2_2{
fill: #150D48;
}
.g3_2{
fill: #0C0A33;
}
]]></style>
</defs>
<g clip-path="url(#c2_2)">
<path d="M0,0H1375V1545.7H0V0Z" class="g0_2"/>
<path d="M0,0H1375V1545.7H0V0Z" class="g1_2"/>
<path d="M0,0H1375V1545.7H0V0Z" class="g2_2"/>
<path d="M0,0H1375V1545.7H0V0Z" class="g2_2"/>
<path d="M0,0H1375V1545.7H0V0Z" class="g3_2"/>
</g>
<g clip-path="url(#c3_2)">
<g clip-path="url(#c0_2)">
<image preserveAspectRatio="none" x="198" y="336" width="473" height="292" xlink:href="img/1.jpg"/>
<image preserveAspectRatio="none" x="198" y="335" width="473" height="293" xlink:href="img/2.jpg"/>
</g>
</g>
<g clip-path="url(#c1_2)">
<g clip-path="url(#c1_2)">
<image preserveAspectRatio="none" x="703" y="336" width="475" height="292" xlink:href="img/3.jpg"/>
<image preserveAspectRatio="none" x="704" y="336" width="474" height="292" xlink:href="img/4.jpg"/>
</g>
</g>
<image clip-path="url(#c4_2)" preserveAspectRatio="none" x="198" y="833" width="980" height="653" xlink:href="img/5.jpg"/>
</svg>