<?xml version="1.0" encoding="UTF-8" standalone="no"?>
<!DOCTYPE svg PUBLIC "-//W3C//DTD SVG 1.1//EN"
"http://www.w3.org/Graphics/SVG/1.1/DTD/svg11.dtd">
<svg viewBox="0 0 1375 951" version="1.1" xmlns="http://www.w3.org/2000/svg" xmlns:xlink="http://www.w3.org/1999/xlink">
<defs>
<clipPath id="c0_7"><path d="M0,951V0H1375V951Z"/></clipPath>
<clipPath id="c1_7"><path d="M859.4,951V0H1375V951Z"/></clipPath>
<style type="text/css"><![CDATA[
.g0_7{
fill: #FFF;
}
.g1_7{
fill: #F7F3F2;
}
.g2_7{
fill: #150D48;
}
.g3_7{
fill: #0C0A33;
}
.g4_7{
fill: #171542;
}
]]></style>
</defs>
<g clip-path="url(#c0_7)">
<path d="M0,0H1375V951H0V0Z" class="g0_7"/>
<path d="M0,0H1375V951H0V0Z" class="g1_7"/>
<path d="M0,0H1375V951H0V0Z" class="g2_7"/>
<path d="M0,0H1375V951H0V0Z" class="g2_7"/>
<path d="M0,0H1375V951H0V0Z" class="g3_7"/>
</g>
<path d="M82.5,317.6V279.3c0,-.7,.1,-1.4,.4,-2.1c.3,-.6,.7,-1.2,1.2,-1.7c.5,-.6,1.1,-1,1.8,-1.2c.7,-.3,1.4,-.4,2.1,-.4h38.3c.7,0,1.4,.1,2.1,.4c.7,.2,1.3,.6,1.8,1.2c.5,.5,.9,1.1,1.2,1.7c.2,.7,.4,1.4,.4,2.1v38.3c0,.8,-.2,1.5,-.4,2.1c-.3,.7,-.7,1.3,-1.2,1.8c-.5,.5,-1.1,.9,-1.8,1.2c-.7,.3,-1.4,.4,-2.1,.4H88c-.7,0,-1.4,-.1,-2.1,-.4c-.7,-.3,-1.3,-.7,-1.8,-1.2c-.5,-.5,-.9,-1.1,-1.2,-1.8c-.3,-.6,-.4,-1.3,-.4,-2.1Z" class="g4_7"/>
<path d="M82.5,481.5V443.2c0,-.7,.1,-1.4,.4,-2.1c.3,-.7,.7,-1.3,1.2,-1.8c.5,-.5,1.1,-.9,1.8,-1.2c.7,-.3,1.4,-.4,2.1,-.4h38.3c.7,0,1.4,.1,2.1,.4c.7,.3,1.3,.7,1.8,1.2c.5,.5,.9,1.1,1.2,1.8c.2,.7,.4,1.4,.4,2.1v38.3c0,.7,-.2,1.4,-.4,2.1c-.3,.7,-.7,1.3,-1.2,1.8c-.5,.5,-1.1,.9,-1.8,1.2c-.7,.2,-1.4,.4,-2.1,.4H88c-.7,0,-1.4,-.2,-2.1,-.4c-.7,-.3,-1.3,-.7,-1.8,-1.2c-.5,-.5,-.9,-1.1,-1.2,-1.8c-.3,-.7,-.4,-1.4,-.4,-2.1Z" class="g4_7"/>
<path d="M82.5,645.4V607c0,-.7,.1,-1.4,.4,-2.1c.3,-.6,.7,-1.2,1.2,-1.7c.5,-.5,1.1,-.9,1.8,-1.2c.7,-.3,1.4,-.4,2.1,-.4h38.3c.7,0,1.4,.1,2.1,.4c.7,.3,1.3,.7,1.8,1.2c.5,.5,.9,1.1,1.2,1.7c.2,.7,.4,1.4,.4,2.1v38.4c0,.7,-.2,1.4,-.4,2.1c-.3,.6,-.7,1.2,-1.2,1.7c-.5,.5,-1.1,.9,-1.8,1.2c-.7,.3,-1.4,.4,-2.1,.4H88c-.7,0,-1.4,-.1,-2.1,-.4c-.7,-.3,-1.3,-.7,-1.8,-1.2c-.5,-.5,-.9,-1.1,-1.2,-1.7c-.3,-.7,-.4,-1.4,-.4,-2.1Z" class="g4_7"/>
<path d="M82.5,809.2V770.9c0,-.7,.1,-1.4,.4,-2.1c.3,-.7,.7,-1.3,1.2,-1.8c.5,-.5,1.1,-.9,1.8,-1.2c.7,-.2,1.4,-.4,2.1,-.4h38.3c.7,0,1.4,.2,2.1,.4c.7,.3,1.3,.7,1.8,1.2c.5,.5,.9,1.1,1.2,1.8c.2,.7,.4,1.4,.4,2.1v38.3c0,.7,-.2,1.4,-.4,2.1c-.3,.7,-.7,1.3,-1.2,1.8c-.5,.5,-1.1,.9,-1.8,1.2c-.7,.2,-1.4,.4,-2.1,.4H88c-.7,0,-1.4,-.2,-2.1,-.4c-.7,-.3,-1.3,-.7,-1.8,-1.2c-.5,-.5,-.9,-1.1,-1.2,-1.8c-.3,-.7,-.4,-1.4,-.4,-2.1Z" class="g4_7"/>
<g clip-path="url(#c1_7)">
<image preserveAspectRatio="none" x="857" y="0" width="520" height="951" xlink:href="img/1.jpg"/>
<image preserveAspectRatio="none" x="858" y="0" width="518" height="951" xlink:href="img/2.jpg"/>
<image preserveAspectRatio="none" x="858" y="0" width="518" height="951" xlink:href="img/3.jpg"/>
</g>
</svg>